<svg width="400" height="400" viewBox="0 0 140 140" xmlns="http://www.w3.org/2000/svg">
  <g transform="translate(10 10)">
    <g transform="translate(60 60) rotate(30 0 0)">
      <ellipse
        cx="0"
        cy="0"
        rx="60"
        ry="25"
        fill="none"
        stroke="#ef7208"
        pathLength="360"
        stroke-width="7"
        stroke-dasharray="160 20"/>
      <path
        d="M54 1 L66 1 L60 -8"
        fill="#ef7208"/>
      <path
        d="M-54 -1 L-66 -1 L-60 8"
        fill="#ef7208"/>
    </g>
    <g transform="translate(60 60) rotate(90 0 0)">
      <ellipse
        cx="0"
        cy="0"
        rx="60"
        ry="25"
        fill="none"
        stroke="#ef7a08"
        pathLength="360"
        stroke-width="7"
        stroke-dasharray="160 20"/>
      <path
        d="M54 1 L66 1 L60 -8"
        fill="#ef7a08"/>
      <path
        d="M-54 -1 L-66 -1 L-60 8"
        fill="#ef7a08"/>
    </g>
    <g transform="translate(60 60) rotate(150 0 0)">
      <ellipse
        cx="0"
        cy="0"
        rx="60"
        ry="25"
        fill="none"
        stroke="#ef8208"
        pathLength="360"
        stroke-width="7"
        stroke-dasharray="160 20"/>
      <path
        d="M54 1 L66 1 L60 -8"
        fill="#ef8208"/>
      <path
        d="M-54 -1 L-66 -1 L-60 8"
        fill="#ef8208"/>
    </g>
    <path d="M45 60 L55 70 L75 50"
          fill="none"
          stroke="#2EBB57"
          stroke-width="9"/>
  </g>
</svg>
