<svg width="400" height="400" viewBox="0 0 140 140" xmlns="http://www.w3.org/2000/svg">
  <filter id='effect'>
    <feGaussianBlur stdDeviation="1 0" />
  </filter>
  <g transform="translate(10 10)">
    <g filter="url(#effect)" transform="translate(60 60) rotate(30 0 0)">
      <ellipse
        cx="0"
        cy="0"
        rx="60"
        ry="25"
        fill="none"
        stroke="#2E8B57"
        pathLength="360"
        stroke-width="7"
        stroke-dasharray="160 20"/>
      <path
        d="M54 0 L66 0 L60 -8"
        fill="#2E8B57"/>
      <path
        d="M-54 0 L-66 0 L-60 8"
        fill="#2E8B57"/>
    </g>
    <g filter="url(#effect)" transform="translate(60 60) rotate(90 0 0)">
      <ellipse
        cx="0"
        cy="0"
        rx="60"
        ry="25"
        fill="none"
        stroke="#2E9357"
        pathLength="360"
        stroke-width="7"
        stroke-dasharray="160 20"/>
      <path
        d="M54 0 L66 0 L60 -8"
        fill="#2E9357"/>
      <path
        d="M-54 0 L-66 0 L-60 8"
        fill="#2E9357"/>
    </g>
    <g filter="url(#effect)" transform="translate(60 60) rotate(150 0 0)">
      <ellipse
        cx="0"
        cy="0"
        rx="60"
        ry="25"
        fill="none"
        stroke="#2E9B57"
        pathLength="360"
        stroke-width="7"
        stroke-dasharray="160 20"/>
      <path
        d="M54 0 L66 0 L60 -8"
        fill="#2E9B57"/>
      <path
        d="M-54 0 L-66 0 L-60 8"
        fill="#2E9B57"/>
    </g>
    <path d="M45 60 L55 70 L75 50"
          fill="none"
          stroke="#2EBB57"
          stroke-width="9"/>
  </g>
</svg>
